<?xml version="1.0" encoding="utf-8"?>
<!-- Generator: Adobe Illustrator 19.0.0, SVG Export Plug-In . SVG Version: 6.00 Build 0)  -->
<svg version="1.1" id="Layer_1" xmlns="http://www.w3.org/2000/svg" xmlns:xlink="http://www.w3.org/1999/xlink" x="0px" y="0px"
	 width="74.984px" height="75.988px" viewBox="0 0 74.984 75.988" style="enable-background:new 0 0 74.984 75.988;"
	 xml:space="preserve">
<style type="text/css">
	.st0{clip-path:url(#SVGID_2_);}
</style>
<g>
	<defs>
		<rect id="SVGID_1_" y="0" width="74.984" height="75.988"/>
	</defs>
	<clipPath id="SVGID_2_">
		<use xlink:href="#SVGID_1_"  style="overflow:visible;"/>
	</clipPath>
	<path class="st0" d="M37.492,0c2.752,0,4.967,2.269,4.967,5.088v19.916c0,2.819-2.215,5.09-4.967,5.09
		c-2.752,0-4.967-2.271-4.967-5.09V5.088C32.525,2.269,34.74,0,37.492,0"/>
	<path class="st0" d="M20.971,8.582c1.303-0.028,2.094,1.525,2.291,3.1c0.235,1.883-0.58,4.317-2.057,5.281
		c-7.975,5.009-13.22,13.602-13.22,23.402c0,15.53,13.163,28.037,29.507,28.037C53.837,68.402,67,55.895,67,40.365
		c0-9.8-5.245-18.393-13.22-23.402c-2.23-1.694-2.109-3.822-1.717-6.022c0.313-1.757,1.879-2.885,3.867-1.58
		c11.364,6.13,19.055,17.736,19.055,31.004c0,19.629-16.833,35.623-37.493,35.623C16.833,75.988,0,59.994,0,40.365
		C0,26.737,8.114,14.861,19.989,8.873C20.342,8.679,20.67,8.588,20.971,8.582"/>
</g>
</svg>
