<?xml version="1.0" encoding="utf-8"?>
<!-- Generator: Adobe Illustrator 21.1.0, SVG Export Plug-In . SVG Version: 6.00 Build 0)  -->
<svg version="1.1" id="HUB" xmlns="http://www.w3.org/2000/svg" xmlns:xlink="http://www.w3.org/1999/xlink" x="0px" y="0px"
	 viewBox="0 0 76 83" style="enable-background:new 0 0 76 83;" xml:space="preserve">
<style type="text/css">
	.st0{fill:#353434;}
	.st1{fill:#B0B0B1;}
</style>
<g>
	<path class="st0" d="M75.4,41.3c0,11.7-3.8,21.3-11.4,28.8C56.1,78,45.4,82,32.2,82h-32V0.7h32.7c13.6,0,24.3,4.2,32.1,12.6
		C71.9,20.9,75.4,30.2,75.4,41.3z M49.2,41.3c0-6.4-1.8-11.3-5.4-14.8c-3.4-3.4-8.2-5.1-14.1-5.1h-4.4v39.8h4.2
		c5.4,0,9.9-1.4,13.4-4.2C47.1,53.6,49.2,48.4,49.2,41.3z"/>
</g>
<g>
	<path class="st1" d="M19.9,63.4v4.4h-5.6v4.5h5.6v4.4H5.7v-4.4H11v-4.5H5.7v-4.4H19.9z"/>
	<path class="st1" d="M14.1,48.2c4.1,0,6.2,2.1,6.2,6.4c0,4.3-2.1,6.4-6.2,6.4H5.7v-4.4h7.9c1.9,0,2.8-0.7,2.8-2
		c0-1.4-0.9-2.1-2.8-2.1H5.7v-4.4H14.1z"/>
	<path class="st1" d="M15.7,33.9c1.3,0,2.2,0.4,3,1.3c0.8,0.9,1.2,2.3,1.2,4.1v6.5H5.7v-6.2c0-1.5,0.4-2.7,1.1-3.5
		c0.6-0.7,1.5-1,2.4-1c1.3,0,2.2,0.6,2.8,1.9c0.2-1,0.6-1.7,1.3-2.2C13.9,34.2,14.7,33.9,15.7,33.9z M10,39.1
		c-0.9,0-1.3,0.5-1.3,1.6v0.8h2.6v-0.5C11.3,39.7,10.9,39.1,10,39.1z M15.4,38.4c-0.9,0-1.4,0.6-1.4,1.7v1.3h2.7v-1.1
		c0-0.5-0.1-1-0.3-1.3C16.2,38.6,15.9,38.4,15.4,38.4z"/>
</g>
</svg>
